# xmcd
#
# Track frame offsets:
#	150
#	11629
#	33236
#	50981
#	68316
#	85493
#	99165
#	111269
#	131669
#	145936
#	164073
#	175891
#	191142
#	208110
#	223483
#	239054
#	255604
#	269187
#	283221
#	301507
#
# Disc length: 4348 seconds
#
# Revision: 0
# Processed by: cddbd v1.5.2PL0 Copyright (c) Steve Scherf et al.
# Submitted via: EasyCDDAExtractor 4.6.0.1
#
DISCID=3e10fa14
DTITLE=Dave Sheriff - Covers 3
DYEAR=2002
DGENRE=Country
TTITLE0=Daydreams About Nightthings
TTITLE1=The River
TTITLE2=Designated Drinker
TTITLE3=There Goes
TTITLE4=She Wears My Ring
TTITLE5=Wrapped Around
TTITLE6=Halfway To Paradise
TTITLE7=Juke Joint Jumpin
TTITLE8=Ín Between Dances
TTITLE9=Sara
TTITLE10=I Guess It Doesn't Matter Anymore
TTITLE11=Saying Sorry (With Kris Kelly)
TTITLE12=Voices Of The Highlands
TTITLE13=Cold Cold Heart
TTITLE14=It's Now Or Never
TTITLE15=That Girl's Been Syin' On Me
TTITLE16=Walk Right Back (Whenever You Need Me)
TTITLE17=Little Chapel (With Becky Haley)
TTITLE18=An American Trilogy
TTITLE19=Today I Started Lovin' You Again (Live Grand Ole Opry)
EXTD=
EXTT0=
EXTT1=
EXTT2=
EXTT3=
EXTT4=
EXTT5=
EXTT6=
EXTT7=
EXTT8=
EXTT9=
EXTT10=
EXTT11=
EXTT12=
EXTT13=
EXTT14=
EXTT15=
EXTT16=
EXTT17=
EXTT18=
EXTT19=
PLAYORDER=
